<svg width="33" height="33" viewBox="0 0 33 33" fill="none" xmlns="http://www.w3.org/2000/svg">
<path d="M2.75001 8.94295C2.74871 8.724 2.86467 8.51991 3.05567 8.40992L3.05703 8.40913L3.05703 8.40914L16.3894 0.84214L16.389 0.79682L16.5965 0.759595C16.7405 0.733768 16.8886 0.760531 17.0141 0.834364L30.3454 8.39643M2.75001 8.94295V8.94211H3.00001L2.75002 8.94404C2.75002 8.94368 2.75001 8.94331 2.75001 8.94295ZM2.75001 8.94295V24.0824H2.74995L2.75007 24.0878C2.75476 24.3015 2.8708 24.4967 3.05564 24.6032L3.05689 24.6039L16.403 32.1904L16.5279 31.9738M16.5279 31.9738L16.4044 32.1911L16.4039 32.1908C16.5925 32.2992 16.8242 32.2992 17.0128 32.1908L17.0124 32.1911L16.8888 31.9738M16.5279 31.9738C16.6396 32.0382 16.777 32.0382 16.8888 31.9738M16.5279 31.9738L3.18043 24.3866C3.07123 24.3237 3.00278 24.2084 3.00001 24.0824H30.4051C30.4023 24.2084 30.3339 24.3237 30.2247 24.3866L16.8888 31.9738M16.8888 31.9738L17.0136 32.1904L30.3483 24.6039L30.3494 24.6032C30.5343 24.4967 30.6503 24.3015 30.655 24.0878L30.6551 24.0878L30.6551 24.0825L30.6664 8.93134L30.6664 8.92878C30.6643 8.70599 30.5414 8.50217 30.3454 8.39643M30.3454 8.39643L30.348 8.39791L30.2247 8.61536L30.3419 8.39457C30.3431 8.39519 30.3442 8.39581 30.3454 8.39643ZM4.57783 8.94151L16.7083 2.06006L28.816 8.93069L16.6967 15.8016L4.57783 8.94151ZM17.3194 16.8551L29.4447 9.99108L29.4339 23.7227L17.3194 30.6189V16.8551ZM3.9716 23.7231V10.0022L16.0976 16.8664V30.6194L3.9716 23.7231Z" fill="white" stroke="white" stroke-width="0.5"/>
</svg>
