<svg width="33" height="33" viewBox="0 0 33 33" fill="none" xmlns="http://www.w3.org/2000/svg">
<path d="M29.711 18.3257C29.7242 18.5145 29.6262 18.6931 29.4605 18.7839L29.4603 18.784L25.1021 21.1558L29.842 25.8843C29.8422 25.8845 29.8425 25.8847 29.8427 25.8849C29.9364 25.976 29.9895 26.1013 29.9895 26.232C29.9895 26.3632 29.9364 26.4882 29.8426 26.5792C29.8424 26.5794 29.8422 26.5796 29.842 26.5798L26.5789 29.8308L26.5787 29.831C26.3903 30.0178 26.0867 30.0177 25.898 29.8311L25.7251 29.66H25.7268L21.1448 25.0895L18.7845 29.4476L18.7842 29.4481C18.6935 29.6137 18.5146 29.7116 18.3263 29.6988L18.3261 29.6988C18.1377 29.6856 17.9741 29.5641 17.9069 29.3876L11.1275 11.7492C11.0704 11.6113 11.0804 11.4547 11.154 11.3252C11.2215 11.2063 11.3355 11.1223 11.4674 11.0923L11.4695 11.0899L11.5071 11.0849C11.5421 11.0803 11.5773 11.0796 11.6122 11.0826M29.711 18.3257C29.711 18.3258 29.711 18.3258 29.711 18.3259L29.6112 18.3327L29.711 18.3257ZM29.711 18.3257C29.6981 18.1373 29.5766 17.9737 29.4002 17.9066L29.4004 17.9067L29.3645 18M29.3645 18L29.4001 17.9065L11.7481 11.1146L11.6122 11.0623V11.0826M29.3645 18L11.8122 11.2464L29.3645 18ZM11.6122 11.0826C11.6586 11.0867 11.7044 11.0975 11.748 11.1148C11.7485 11.115 11.7489 11.1152 11.7494 11.1154L11.7123 11.2079L11.5201 11.0841H11.5204L11.5275 11.1832C11.5557 11.18 11.5841 11.18 11.6122 11.1831V11.0826ZM18.4356 28.0697L20.6122 24.0602L20.6123 24.0599C20.6842 23.9286 20.8128 23.8378 20.9607 23.8142M18.4356 28.0697L20.9765 23.9129M18.4356 28.0697L12.414 12.414L28.069 18.4353L24.0603 20.5999L23.9421 20.6637L23.9557 20.6772M18.4356 28.0697L23.9557 20.6772M20.9607 23.8142L20.9765 23.9129M20.9607 23.8142C20.9606 23.8142 20.9606 23.8142 20.9605 23.8142L20.9765 23.9129M20.9607 23.8142C21.1086 23.7903 21.2595 23.8365 21.3686 23.9392L21.3708 23.9413L21.3708 23.9413L26.2321 28.8027M20.9765 23.9129C21.0938 23.8939 21.2135 23.9306 21.3001 24.012L26.1614 28.8734L26.2321 28.8027M26.2321 28.8027L28.8029 26.2319L23.9545 21.3716C23.9543 21.3715 23.9541 21.3713 23.9539 21.3711M26.2321 28.8027L26.3028 28.8734L28.9442 26.232L23.9539 21.3711M23.9557 20.6772C23.8787 20.7517 23.8276 20.8506 23.8126 20.9593M23.9557 20.6772L23.9539 21.3711M23.8126 20.9593C23.7917 21.111 23.8442 21.264 23.9539 21.3711M23.8126 20.9593L23.9081 20.9724L23.8126 20.9593C23.8126 20.9593 23.8126 20.9593 23.8126 20.9593ZM6.36044 6.68671C6.30933 6.86224 6.36138 7.05156 6.4953 7.17619L8.78502 9.46591L8.79707 9.47823C8.98488 9.67008 9.29275 9.67348 9.48465 9.48563C9.67649 9.29782 9.6799 8.99022 9.49204 8.79832L9.49205 8.79832L9.4913 8.79757L7.1923 6.49857L7.18991 6.496C7.08709 6.38555 6.9389 6.32949 6.78921 6.34395C6.77681 6.34359 6.76441 6.34369 6.75201 6.34424L6.75415 6.39247L6.73858 6.34575C6.55824 6.37851 6.41175 6.51052 6.36044 6.68671L6.36044 6.68671ZM19.5108 6.72922C19.4009 6.74468 19.2998 6.79783 19.2247 6.87895L17.0926 9.01096V9.00751L16.9213 9.18206C16.8307 9.27433 16.7812 9.39883 16.7826 9.52745C16.7839 9.65637 16.8365 9.77939 16.9285 9.86964L16.9286 9.86976C17.0207 9.95984 17.1451 10.0097 17.2739 10.0084C17.4026 10.007 17.5255 9.9545 17.6158 9.86243C17.6159 9.8623 17.6161 9.86217 17.6162 9.86204L19.9179 7.56028C19.9182 7.56005 19.9184 7.55982 19.9186 7.5596C20.0639 7.41911 20.1065 7.20315 20.026 7.01815L20.0259 7.01808C19.9457 6.83428 19.7609 6.71924 19.561 6.7281C19.5466 6.72739 19.5322 6.72751 19.5178 6.72847L19.52 6.79473L19.5108 6.72922ZM9.4758 16.7121L9.47952 16.7958L9.47956 16.8073L9.46601 16.7131C9.35634 16.7288 9.25563 16.7816 9.18022 16.8627L6.87744 19.1655L6.87664 19.1663C6.68912 19.3582 6.69253 19.6657 6.88437 19.8535C7.07613 20.0412 7.38341 20.038 7.57125 19.8466C7.57139 19.8464 7.57153 19.8463 7.57167 19.8461L9.87371 17.5441C9.87396 17.5438 9.8742 17.5436 9.87445 17.5434C10.0197 17.4029 10.0623 17.1871 9.98145 17.0019L9.98142 17.0018C9.90113 16.8182 9.71595 16.7027 9.51579 16.7119C9.50246 16.7115 9.48913 16.7115 9.4758 16.7121ZM13.3685 2.9C13.1011 2.9 12.8844 3.11674 12.8844 3.38411V8.75997C12.8844 9.02735 13.1011 9.24408 13.3685 9.24408C13.6359 9.24408 13.8526 9.02735 13.8526 8.75997V3.38411C13.8526 3.11674 13.6359 2.9 13.3685 2.9ZM3.38411 12.8841C3.11674 12.8841 2.9 13.1008 2.9 13.3682C2.9 13.6356 3.11674 13.8523 3.38411 13.8523H8.75997C9.02735 13.8523 9.24408 13.6356 9.24408 13.3682C9.24408 13.1008 9.02735 12.8841 8.75997 12.8841H3.38411Z" fill="white" stroke="white" stroke-width="0.2"/>
</svg>
